<?xml version="1.0" encoding="utf-8"?>
<!-- Generator: Adobe Illustrator 22.0.1, SVG Export Plug-In . SVG Version: 6.00 Build 0)  -->
<svg version="1.1" id="Layer_1" xmlns="http://www.w3.org/2000/svg" xmlns:xlink="http://www.w3.org/1999/xlink" x="0px" y="0px"
	 viewBox="0 0 410 60" enable-background="new 0 0 410 60" xml:space="preserve">
<g>
	<g>
		<g>
			<path fill="#9AAD35" d="M222.899,13.058h-35.798c-4.149,4.408-6.713,10.324-6.713,16.841s2.564,12.433,6.713,16.841h35.798
				c4.149-4.408,6.713-10.324,6.713-16.841S227.048,17.466,222.899,13.058z"/>
			<circle fill="#FFFFFF" cx="205" cy="29.899" r="11.359"/>
			<path fill="#010101" d="M205,58.298c-15.659,0-28.399-12.74-28.399-28.399S189.341,1.501,205,1.501s28.399,12.74,28.399,28.399
				S220.659,58.298,205,58.298z M205,5.287c-13.571,0-24.612,11.041-24.612,24.612S191.429,54.511,205,54.511
				s24.612-11.041,24.612-24.612S218.571,5.287,205,5.287z"/>
		</g>
	</g>
	<g>
		<path d="M204.598,22.86c3.781,0,5.229,1.528,5.229,4.828c0,0.683-0.201,2.011-1.026,2.916c0.825,0.383,1.429,1.389,1.429,2.636
			c0,2.494-1.106,3.7-4.888,3.7h-4.968c-0.382,0-0.603-0.221-0.603-0.604V23.483c0-0.402,0.201-0.603,0.603-0.623H204.598z
			 M205.081,34.083c0.965,0,1.448-0.102,1.448-1.047s-0.443-1.085-1.408-1.085h-1.307c-0.382,0-0.603,0.2-0.603,0.603v0.925
			c0,0.402,0.221,0.604,0.603,0.604H205.081z M204.919,29.055c0.966,0,1.449-0.121,1.449-1.368s-0.483-1.368-1.449-1.368h-1.086
			c-0.382,0-0.603,0.202-0.603,0.604v1.528c0,0.402,0.221,0.604,0.603,0.604H204.919z"/>
	</g>
</g>
<g>
	<g>
		<circle fill="#7ABFE4" cx="30.751" cy="30.302" r="24.612"/>
		<circle fill="#FFFFFF" cx="30.751" cy="30.302" r="11.359"/>
		<path fill="#010101" d="M30.751,58.701c-15.659,0-28.399-12.74-28.399-28.399S15.092,1.903,30.751,1.903
			s28.399,12.74,28.399,28.399S46.41,58.701,30.751,58.701z M30.751,5.69C17.18,5.69,6.139,16.731,6.139,30.302
			S17.18,54.914,30.751,54.914s24.612-11.041,24.612-24.612S44.322,5.69,30.751,5.69z"/>
	</g>
	<g>
		<path d="M28.197,23.262c0.362,0,0.583,0.181,0.664,0.523l1.769,7.724c0.04,0.181,0.201,0.181,0.241,0l1.77-7.724
			c0.081-0.342,0.302-0.523,0.664-0.523h2.394c0.422,0,0.623,0.241,0.523,0.664l-2.936,12.892c-0.081,0.342-0.302,0.523-0.664,0.523
			h-3.741c-0.363,0-0.584-0.181-0.664-0.523L25.28,23.926c-0.1-0.423,0.101-0.664,0.523-0.664H28.197z"/>
	</g>
</g>
<g>
	<g>
		<path fill="#E8B334" d="M106.733,13.461H70.935c-4.149,4.408-6.713,10.324-6.713,16.841s2.564,12.433,6.713,16.841h35.798
			c4.149-4.408,6.713-10.324,6.713-16.841S110.882,17.869,106.733,13.461z"/>
		<circle fill="#FFFFFF" cx="88.834" cy="30.302" r="11.359"/>
		<path fill="#010101" d="M88.834,58.701c-15.659,0-28.399-12.74-28.399-28.399S73.175,1.903,88.834,1.903
			s28.399,12.74,28.399,28.399S104.493,58.701,88.834,58.701z M88.834,5.69c-13.571,0-24.612,11.041-24.612,24.612
			s11.041,24.612,24.612,24.612s24.612-11.041,24.612-24.612S102.405,5.69,88.834,5.69z"/>
	</g>
	<g>
		<path d="M86.642,23.081c0.402,0,0.603,0.201,0.603,0.603v7.885c0,1.549,0.1,2.494,1.589,2.494c1.488,0,1.589-0.945,1.589-2.494
			v-7.885c0-0.402,0.221-0.603,0.603-0.603h2.253c0.402,0,0.603,0.201,0.603,0.603v8.951c0,1.328-0.282,4.887-5.049,4.887
			c-4.766,0-5.048-3.56-5.048-4.887v-8.951c0-0.402,0.221-0.603,0.603-0.603H86.642z"/>
	</g>
</g>
<g>
	<g>
		<circle fill="#F15B62" cx="146.917" cy="30.201" r="24.612"/>
		<circle fill="#FFFFFF" cx="146.917" cy="30.201" r="11.359"/>
		<path fill="#010101" d="M146.917,58.6c-15.659,0-28.399-12.74-28.399-28.399s12.74-28.399,28.399-28.399
			s28.399,12.74,28.399,28.399S162.576,58.6,146.917,58.6z M146.917,5.589c-13.571,0-24.612,11.041-24.612,24.612
			s11.041,24.612,24.612,24.612s24.612-11.041,24.612-24.612S160.488,5.589,146.917,5.589z"/>
	</g>
	<g>
		<path d="M151.141,23.161c0.402,0,0.603,0.201,0.603,0.603v2.252c0,0.383-0.201,0.604-0.603,0.604h-4.867
			c-0.382,0-0.603,0.201-0.603,0.603v0.644c0,0.381,0.221,0.603,0.603,0.603h3.117c0.402,0,0.603,0.202,0.603,0.604v2.253
			c0,0.381-0.201,0.603-0.603,0.603h-3.117c-0.382,0-0.603,0.202-0.603,0.604v0.643c0,0.383,0.221,0.604,0.603,0.604h4.867
			c0.402,0,0.603,0.202,0.603,0.604v2.252c0,0.402-0.201,0.604-0.603,0.604h-8.448c-0.382,0-0.603-0.221-0.603-0.604V23.765
			c0-0.402,0.221-0.603,0.603-0.603H151.141z"/>
	</g>
</g>
<g>
	<g>
		<g>
			<circle fill="#7F5377" cx="263.083" cy="29.698" r="24.612"/>
			<circle fill="#FFFFFF" cx="263.083" cy="29.698" r="11.359"/>
			<path fill="#010101" d="M263.083,58.097c-15.659,0-28.399-12.74-28.399-28.399s12.74-28.399,28.399-28.399
				c15.659,0,28.399,12.74,28.399,28.399S278.742,58.097,263.083,58.097z M263.083,5.086c-13.571,0-24.612,11.041-24.612,24.612
				s11.041,24.612,24.612,24.612c13.571,0,24.612-11.041,24.612-24.612S276.654,5.086,263.083,5.086z"/>
		</g>
	</g>
	<g>
		<path d="M268.011,36.235c0,0.443-0.201,0.683-0.603,0.683h-2.253c-0.382,0-0.603-0.202-0.603-0.604v-1.749
			c0-0.402-0.201-0.604-0.603-0.604h-1.73c-0.382,0-0.603,0.202-0.603,0.604v1.749c0,0.402-0.201,0.604-0.604,0.604h-2.252
			c-0.382,0-0.603-0.241-0.603-0.683v-8.529c0-2.534,0.402-5.228,4.928-5.228c4.526,0,4.928,2.694,4.928,5.228V36.235z
			 M264.551,27.706c0-0.964-0.141-1.447-1.468-1.447c-1.328,0-1.468,0.483-1.468,1.447v2.193c0,0.381,0.221,0.603,0.603,0.603h1.73
			c0.402-0.019,0.603-0.221,0.603-0.623V27.706z"/>
	</g>
</g>
<g>
	<g>
		<g>
			<circle fill="#E8B334" cx="379.249" cy="30" r="24.612"/>
			<circle fill="#FFFFFF" cx="379.249" cy="30" r="11.359"/>
			<path fill="#010101" d="M379.249,58.399c-15.659,0-28.399-12.74-28.399-28.399s12.74-28.399,28.399-28.399
				c15.659,0,28.399,12.74,28.399,28.399S394.908,58.399,379.249,58.399z M379.249,5.388c-13.571,0-24.612,11.041-24.612,24.612
				s11.041,24.612,24.612,24.612S403.861,43.571,403.861,30S392.82,5.388,379.249,5.388z"/>
		</g>
	</g>
	<g>
		<path d="M377.529,22.96c0.402,0,0.603,0.2,0.603,0.603v9.413c0,0.383,0.221,0.604,0.603,0.604h4.485
			c0.403,0,0.604,0.202,0.604,0.604v2.252c0,0.402-0.201,0.604-0.604,0.604h-7.945c-0.382,0-0.603-0.221-0.603-0.604V23.563
			c0-0.402,0.221-0.603,0.603-0.603H377.529z"/>
	</g>
</g>
<g>
	<g>
		<g>
			<path fill="#7ABFE4" d="M339.065,12.958h-35.798c-4.149,4.408-6.713,10.324-6.713,16.841s2.564,12.433,6.713,16.841h35.798
				c4.149-4.408,6.713-10.324,6.713-16.841S343.214,17.365,339.065,12.958z"/>
			<circle fill="#FFFFFF" cx="321.166" cy="29.799" r="11.359"/>
			<path fill="#010101" d="M321.166,58.197c-15.659,0-28.399-12.74-28.399-28.399S305.507,1.4,321.166,1.4
				s28.399,12.74,28.399,28.399S336.825,58.197,321.166,58.197z M321.166,5.186c-13.571,0-24.612,11.041-24.612,24.612
				s11.041,24.612,24.612,24.612s24.612-11.041,24.612-24.612S334.737,5.186,321.166,5.186z"/>
		</g>
	</g>
	<g>
		<path d="M319.446,22.759c0.402,0,0.603,0.2,0.603,0.603v9.413c0,0.383,0.221,0.604,0.603,0.604h4.485
			c0.403,0,0.604,0.202,0.604,0.604v2.252c0,0.402-0.201,0.604-0.604,0.604h-7.945c-0.382,0-0.603-0.221-0.603-0.604V23.362
			c0-0.402,0.221-0.603,0.603-0.603H319.446z"/>
	</g>
</g>
</svg>
