<?xml version="1.0" encoding="utf-8"?>
<!-- Generator: Adobe Illustrator 22.0.1, SVG Export Plug-In . SVG Version: 6.00 Build 0)  -->
<svg version="1.1" id="Layer_1" xmlns="http://www.w3.org/2000/svg" xmlns:xlink="http://www.w3.org/1999/xlink" x="0px" y="0px"
	 viewBox="0 0 100 100" enable-background="new 0 0 100 100" xml:space="preserve">
<g>
	<circle fill="#7ABFE4" cx="50" cy="33.393" r="17.271"/>
	<circle fill="#FFFFFF" cx="50" cy="33.393" r="7.971"/>
	<circle fill="#F15B62" cx="68.6" cy="66.607" r="17.271"/>
	<circle fill="#FFFFFF" cx="68.6" cy="66.607" r="7.971"/>
	<circle fill="#E8B334" cx="31.4" cy="66.607" r="17.271"/>
	<circle fill="#FFFFFF" cx="31.4" cy="66.607" r="7.971"/>
	<g>
		<path fill="#010101" d="M31.4,86.535c-10.988,0-19.928-8.94-19.928-19.928s8.94-19.928,19.928-19.928s19.928,8.94,19.928,19.928
			S42.389,86.535,31.4,86.535z M31.4,49.336c-9.523,0-17.271,7.748-17.271,17.271S21.877,83.878,31.4,83.878
			s17.271-7.748,17.271-17.271S40.923,49.336,31.4,49.336z"/>
		<path fill="#010101" d="M68.6,86.535c-10.988,0-19.928-8.94-19.928-19.928s8.94-19.928,19.928-19.928s19.928,8.94,19.928,19.928
			S79.588,86.535,68.6,86.535z M68.6,49.336c-9.523,0-17.271,7.748-17.271,17.271S59.077,83.878,68.6,83.878
			s17.271-7.748,17.271-17.271S78.123,49.336,68.6,49.336z"/>
		<path fill="#010101" d="M50,53.321c-10.988,0-19.928-8.94-19.928-19.928S39.012,13.465,50,13.465s19.928,8.94,19.928,19.928
			S60.988,53.321,50,53.321z M50,16.122c-9.523,0-17.271,7.748-17.271,17.271S40.477,50.664,50,50.664s17.271-7.748,17.271-17.271
			S59.523,16.122,50,16.122z"/>
		<path fill="#010101" d="M31.4,77.235c-5.86,0-10.628-4.768-10.628-10.628S25.54,55.978,31.4,55.978s10.628,4.768,10.628,10.628
			S37.261,77.235,31.4,77.235z M31.4,58.636c-4.396,0-7.971,3.575-7.971,7.971s3.575,7.971,7.971,7.971s7.971-3.575,7.971-7.971
			S35.797,58.636,31.4,58.636z"/>
		<path fill="#010101" d="M68.6,77.235c-5.86,0-10.628-4.768-10.628-10.628S62.739,55.978,68.6,55.978s10.628,4.768,10.628,10.628
			S74.46,77.235,68.6,77.235z M68.6,58.636c-4.396,0-7.971,3.575-7.971,7.971s3.575,7.971,7.971,7.971
			c4.396,0,7.971-3.575,7.971-7.971S72.996,58.636,68.6,58.636z"/>
		<path fill="#010101" d="M50,44.022c-5.86,0-10.628-4.768-10.628-10.628S44.14,22.765,50,22.765s10.628,4.768,10.628,10.628
			S55.86,44.022,50,44.022z M50,25.422c-4.396,0-7.971,3.575-7.971,7.971s3.575,7.971,7.971,7.971s7.971-3.575,7.971-7.971
			S54.396,25.422,50,25.422z"/>
	</g>
	<g>
		<path d="M54.983,35.694c0,0.277-0.045,0.544-0.136,0.8s-0.225,0.488-0.4,0.696c-0.176,0.208-0.387,0.373-0.632,0.496
			S53.298,37.87,53,37.87c-0.608,0-1.185-0.085-1.729-0.256s-1.067-0.36-1.568-0.568c-0.501-0.208-0.992-0.4-1.472-0.576
			c-0.48-0.176-0.96-0.264-1.44-0.264c-0.352,0-0.643,0.142-0.872,0.424s-0.344,0.696-0.344,1.24h-0.32v-3.2
			c0-0.448,0.123-0.781,0.368-1c0.245-0.219,0.555-0.384,0.928-0.496c0.373-0.112,0.773-0.2,1.2-0.264s0.827-0.165,1.2-0.304
			c0.373-0.138,0.682-0.346,0.928-0.624s0.368-0.683,0.368-1.216c0-0.298-0.062-0.579-0.184-0.84s-0.283-0.485-0.48-0.672
			s-0.419-0.333-0.664-0.44c-0.246-0.106-0.485-0.16-0.72-0.16c-0.192,0-0.35,0.002-0.472,0.008s-0.222,0.014-0.296,0.024
			c-0.085,0.011-0.149,0.021-0.192,0.032c0.256,0,0.504,0.042,0.744,0.128c0.24,0.085,0.451,0.216,0.632,0.392
			c0.181,0.176,0.328,0.392,0.44,0.648c0.112,0.256,0.168,0.549,0.168,0.88c0,0.32-0.062,0.603-0.184,0.848
			c-0.123,0.246-0.28,0.454-0.472,0.624c-0.192,0.171-0.405,0.299-0.64,0.384c-0.235,0.085-0.464,0.128-0.688,0.128
			c-0.224,0-0.454-0.045-0.688-0.136c-0.235-0.09-0.448-0.224-0.64-0.4c-0.192-0.176-0.35-0.384-0.472-0.624
			c-0.123-0.24-0.184-0.515-0.184-0.824c0-0.352,0.072-0.69,0.216-1.016c0.144-0.325,0.4-0.61,0.768-0.856
			c0.368-0.245,0.866-0.442,1.496-0.592s1.424-0.224,2.384-0.224c0.959,0,1.751,0.056,2.375,0.168
			c0.624,0.112,1.12,0.28,1.488,0.504c0.368,0.224,0.627,0.504,0.776,0.84s0.224,0.728,0.224,1.176c0,0.576-0.131,1.027-0.392,1.352
			c-0.262,0.326-0.622,0.568-1.08,0.728c-0.459,0.16-0.995,0.259-1.608,0.296c-0.613,0.038-1.271,0.056-1.976,0.056
			c-1.056,0-1.875,0.045-2.456,0.136c-0.582,0.091-1.008,0.206-1.28,0.344s-0.432,0.286-0.48,0.44
			c-0.048,0.155-0.072,0.296-0.072,0.424c0-0.096,0.045-0.205,0.136-0.328s0.301-0.24,0.632-0.352
			c0.33-0.112,0.813-0.208,1.448-0.288s1.496-0.12,2.584-0.12c0.971,0,1.752-0.037,2.344-0.112c0.593-0.075,1.048-0.163,1.368-0.264
			c0.32-0.101,0.533-0.2,0.641-0.296c0.106-0.096,0.17-0.17,0.191-0.224V35.694z"/>
	</g>
	<g>
		<path d="M33.791,61.145v9.472h2.368v0.32h-2.368h-4.992h-2.368v-0.32h2.368v-6.655c-0.64,0.128-1.323,0.191-2.048,0.191h-0.32
			v-0.256h0.32c0.875,0,1.728-0.128,2.56-0.384c0.384-0.128,0.896-0.32,1.536-0.576c0.96-0.448,1.813-1.045,2.56-1.792H33.791z"/>
	</g>
	<g>
		<path d="M68.856,66.204c-1.078,0-1.932-0.035-2.561-0.104c-0.63-0.069-1.112-0.157-1.448-0.264S64.296,65.617,64.2,65.5
			c-0.097-0.117-0.145-0.225-0.145-0.32v1.28h4.353c0.704,0,1.362,0.021,1.976,0.063c0.613,0.043,1.149,0.149,1.608,0.32
			c0.458,0.171,0.818,0.421,1.08,0.752c0.261,0.331,0.392,0.784,0.392,1.36c0,0.447-0.074,0.84-0.224,1.176s-0.408,0.616-0.776,0.84
			s-0.864,0.392-1.488,0.504s-1.416,0.168-2.376,0.168s-1.754-0.074-2.384-0.224c-0.629-0.149-1.128-0.347-1.496-0.593
			c-0.368-0.245-0.624-0.53-0.768-0.855c-0.145-0.325-0.216-0.664-0.216-1.016c0-0.299,0.061-0.571,0.184-0.816
			s0.28-0.456,0.472-0.632c0.192-0.176,0.405-0.31,0.641-0.4c0.234-0.09,0.464-0.136,0.688-0.136c0.225,0,0.453,0.043,0.688,0.128
			c0.234,0.086,0.448,0.214,0.64,0.384c0.192,0.171,0.35,0.379,0.472,0.624c0.123,0.246,0.185,0.528,0.185,0.849
			c0,0.341-0.056,0.637-0.168,0.888s-0.259,0.464-0.44,0.64s-0.392,0.307-0.632,0.393c-0.24,0.085-0.488,0.128-0.744,0.128
			c0.043,0.011,0.106,0.021,0.192,0.031c0.074,0.011,0.173,0.02,0.296,0.024c0.122,0.006,0.28,0.008,0.472,0.008
			c0.234,0,0.475-0.053,0.721-0.16c0.245-0.106,0.466-0.253,0.664-0.439c0.197-0.187,0.356-0.408,0.479-0.664
			c0.122-0.256,0.184-0.539,0.184-0.848c0-0.331-0.082-0.633-0.247-0.904c-0.166-0.272-0.385-0.501-0.656-0.688
			c-0.272-0.187-0.592-0.33-0.96-0.432s-0.75-0.152-1.145-0.152h-1.983v-4.928h0.319c0,0.544,0.115,0.958,0.345,1.24
			c0.229,0.282,0.52,0.424,0.872,0.424c0.49,0,0.979-0.085,1.464-0.256s0.976-0.36,1.472-0.568s1.014-0.399,1.552-0.576
			c0.539-0.176,1.112-0.264,1.721-0.264c0.298,0,0.57,0.059,0.815,0.176c0.245,0.118,0.456,0.275,0.632,0.473s0.31,0.424,0.4,0.68
			s0.136,0.518,0.136,0.784v3.2c-0.032-0.064-0.106-0.149-0.224-0.257c-0.118-0.106-0.339-0.213-0.664-0.319
			s-0.784-0.197-1.376-0.272C70.608,66.241,69.826,66.204,68.856,66.204z"/>
	</g>
</g>
</svg>
